<?xml version="1.0" encoding="utf-8"?>
<!-- Generator: Adobe Illustrator 16.0.0, SVG Export Plug-In . SVG Version: 6.00 Build 0)  -->
<!DOCTYPE svg PUBLIC "-//W3C//DTD SVG 1.1//EN" "http://www.w3.org/Graphics/SVG/1.1/DTD/svg11.dtd">
<svg version="1.1" id="Layer_1" xmlns="http://www.w3.org/2000/svg" xmlns:xlink="http://www.w3.org/1999/xlink" x="0px" y="0px"
	 width="612px" height="792px" viewBox="0 0 612 792" enable-background="new 0 0 612 792" xml:space="preserve">
<g id="Group_45" transform="translate(-191 -152.079)">
	<g id="Group_30" transform="translate(282.246 224.353)">
		<path id="Path_945" fill="#FFB8B8" d="M140.703,351.552c0,0,27.689,77.418,6.216,120.931
			c-21.474,43.512,33.906,92.676,33.906,92.676S326.62,491.13,307.972,453.834c-18.648-37.297-49.729-86.46-43.513-117.54
			L140.703,351.552z"/>
		<ellipse id="Ellipse_185" fill="#FFB8B8" cx="186.65" cy="220.534" rx="145.819" ry="160.953"/>
		<path id="Path_946" fill="#575A89" d="M135.618,619.407c-14.692-3.956-28.819-9.041-42.947-14.692l2.825-75.158l27.69-62.16
			c6.216,5.086,12.997,9.041,19.778,12.997c1.695,1.13,3.391,1.695,5.086,2.825c25.994,12.433,68.941,23.734,110.193-7.346
			c15.258-11.867,28.255-26.56,37.861-42.947l78.549,44.077l3.955,47.468l4.521,55.38c-6.781,4.521-13.563,8.477-20.344,12.432
			c-36.731,20.344-77.418,32.776-118.67,36.731c-9.607,1.131-19.214,1.131-28.82,1.131
			C188.172,630.145,161.613,626.189,135.618,619.407z"/>
		<path id="Path_947" fill="#040407" d="M154.831,421.059L154.831,421.059l-3.956,40.687l-2.261,21.474l-2.825,31.646
			l-10.172,104.543c-14.692-3.956-28.819-9.041-42.947-14.692c-7.346-2.825-14.127-6.216-20.908-10.172
			c-16.388-8.477-31.646-18.648-46.338-29.95l-10.737-50.858l0.565-0.565L154.831,421.059z"/>
		<path id="Path_948" d="M362.786,591.718c-36.731,20.344-77.418,32.775-118.67,36.731c2.26-37.862,5.65-74.028,9.041-106.238
			c1.695-16.388,3.956-32.211,6.216-46.338c6.781-45.208,14.128-76.288,19.214-80.244l34.471,22.604l139.014,49.164l-2.825,53.684
			c-19.214,22.604-41.252,41.817-65.552,58.205C376.349,583.807,369.568,588.327,362.786,591.718z"/>
		<path id="Path_949" fill="#575A89" d="M25.989,565.158c-6.781-5.086-12.997-10.737-19.213-16.388l5.086-34.472l3.955-0.564
			l17.519-2.261l38.427,83.635C55.939,586.067,40.681,576.46,25.989,565.158L25.989,565.158z"/>
		<path id="Path_950" fill="#575A89" d="M471.285,491.13c-6.781,10.737-14.128,20.344-22.604,29.95
			c-19.213,22.604-41.252,41.817-65.551,58.205c-6.781,4.521-13.563,8.477-20.344,12.433l-3.391-15.823l19.778-51.424l23.734-62.726
			l49.729,6.216C458.853,475.308,465.069,483.219,471.285,491.13z"/>
		<ellipse id="Ellipse_186" fill="#FFB8B8" cx="283.673" cy="278.654" rx="6.781" ry="13.562"/>
	</g>
</g>
</svg>
